<svg width="1400" height="264" viewBox="0 0 1400 264" fill="none" xmlns="http://www.w3.org/2000/svg">
<path d="M501 263.003L369.331 189.647L369 73.1022L500.602 146.459L500.934 263.003H501Z" fill="url(#paint0_linear_214_2)"/>
<path d="M500.67 146.458L369.068 73.1021L501.067 0L632.67 73.3562L500.67 146.458Z" fill="#86C7F7"/>
<path fill-rule="evenodd" clip-rule="evenodd" d="M503.717 39.7583L496.101 40.584L494.975 41.0286H493.782L492.723 41.4733L486.762 42.807L485.901 43.188H485.106L484.377 43.7596L473.383 47.6973L472.853 48.1419C467.886 49.9838 463.846 52.5878 459.541 54.7472L459.077 55.2552C455.169 57.3511 453.845 58.431 451.129 60.9715L450.467 61.4159L447.751 64.9092L447.221 65.3538L446.294 67.1321L445.831 67.6401C442.718 74.4359 442.784 75.5156 443.446 83.4545L443.976 84.2802V85.1059L444.374 85.8045L445.367 88.2815L445.831 88.8531L446.294 90.1234L446.824 90.5678C448.414 93.2989 450.334 95.4584 452.255 97.4272C453.315 98.5705 457.819 102.064 459.607 102.953L460.07 103.461C463.713 105.112 466.362 107.208 470.932 108.732L471.528 109.113L480.404 111.781L481.397 112.225C484.444 112.543 487.689 113.432 491.067 113.813C494.776 114.258 496.763 112.543 499.809 111.273L500.406 110.828H500.803L501.399 110.384L515.506 104.159L516.103 103.715H516.5L517.096 103.27L525.242 99.5866L524.514 99.2691C519.745 99.0786 514.116 99.7772 508.949 99.6502C503.783 99.5232 498.948 98.6339 494.246 98.3799L493.253 97.9352C489.808 97.6177 486.364 96.2205 483.45 95.2679L482.788 94.8868C478.019 93.2355 473.648 89.6153 471.528 85.9316C468.283 79.9615 470.27 75.5791 472.787 70.5616L473.317 70.1172L473.78 69.2915L474.31 68.8469C476.893 65.3537 483.119 60.5267 489.345 58.6214L490.007 58.2403L496.564 56.462L497.491 56.0175H498.485L499.478 55.5729L503.85 55.1919C504.909 54.5567 505.439 54.6203 506.963 54.6203H517.096C518.686 54.6203 520.076 54.6202 521.202 55.1919L527.097 55.954L527.825 56.462C531.402 56.9701 534.383 58.8755 537.429 59.9553L537.959 60.3997L539.813 61.2254L540.277 61.7336C543.456 63.3214 549.086 68.2753 550.278 72.213L550.676 72.8482C552 77.294 551.669 78.7547 550.676 83.1371L550.278 83.9627L548.622 87.3922L551.073 86.4396L551.603 85.9952L571.141 76.3412L571.671 75.8966L576.307 73.6738L576.837 73.2292L581.473 71.0063L582.003 70.4983C582.202 69.5456 576.175 64.782 574.85 63.5753L574.386 62.9403C572.797 61.6701 570.545 59.7646 568.69 58.6849L568.227 58.1769C566.372 57.1607 564.783 55.5729 562.995 54.7472L562.531 54.2392L557.828 51.6352L557.365 51.127L551.205 48.0786L550.609 47.6339L542.728 44.5217L542.065 44.1407L537.297 42.8705L536.568 42.3623H535.707L534.78 41.9813H533.919L533.058 41.4733C529.15 41.0922 524.911 39.8855 520.54 39.5044C515.308 39.0598 510.208 39.6314 505.505 39.2503L503.651 39.6949L503.717 39.7583Z" fill="url(#paint1_linear_214_2)"/>
<path d="M500.669 146.459L501 263.004L564.383 227.945V111.147L500.669 146.459Z" fill="#A9DCFC"/>
<path d="M633 189.964L632.669 73.3563L569.285 108.478V225.213L633 189.964Z" fill="#A9DCFC"/>
<path d="M569.285 108.479L564.384 111.146V227.944L569.285 225.213V108.479Z" fill="#A9DCFC"/>
<path d="M569.285 108.479L564.384 111.146V227.944L569.285 225.213V108.479Z" fill="url(#paint2_linear_214_2)"/>
<path d="M709.151 200.534L709.201 200.734C709.275 205.48 707.852 209.461 704.964 212.673C702.052 215.884 698.224 217.478 693.435 217.478C688.645 217.478 684.627 215.46 681.571 211.391C678.514 207.327 677 202.181 677 195.924V186.913C677 180.656 678.518 175.515 681.571 171.446C684.627 167.382 688.575 165.335 693.435 165.335C698.294 165.335 702.147 166.87 705.01 169.911C707.873 172.952 709.271 177.021 709.197 182.05L709.147 182.25H703.587C703.587 178.697 702.696 175.88 700.938 173.834C699.181 171.758 696.677 170.734 693.455 170.734C690.233 170.734 687.63 172.269 685.704 175.369C683.778 178.468 682.816 182.279 682.816 186.855V195.953C682.816 200.558 683.778 204.428 685.704 207.498C687.63 210.597 690.205 212.132 693.455 212.132C696.706 212.132 699.16 211.109 700.938 209.062C702.696 207.015 703.587 204.174 703.587 200.563L709.147 200.534H709.151ZM717.166 221.089H712.208L730.136 166.076H735.045L717.162 221.089H717.166ZM772.398 200.534L772.447 200.734C772.522 205.48 771.099 209.461 768.211 212.673C765.299 215.884 761.471 217.478 756.681 217.478C751.892 217.478 747.874 215.46 744.817 211.391C741.761 207.327 740.247 202.181 740.247 195.924V186.913C740.247 180.656 741.765 175.515 744.817 171.446C747.874 167.382 751.822 165.335 756.681 165.335C761.541 165.335 765.393 166.87 768.256 169.911C771.119 172.952 772.518 177.021 772.443 182.05L772.394 182.25H766.833C766.833 178.697 765.942 175.88 764.185 173.834C762.428 171.758 759.924 170.734 756.702 170.734C753.48 170.734 750.877 172.269 748.951 175.369C747.024 178.468 746.063 182.279 746.063 186.855V195.953C746.063 200.558 747.024 204.428 748.951 207.498C750.877 210.597 753.451 212.132 756.702 212.132C759.952 212.132 762.407 211.109 764.185 209.062C765.942 207.015 766.833 204.174 766.833 200.563H772.394V200.534H772.398ZM794.95 189.501H806.694V195.7H794.95V211.679H789.15V195.7H777.311V189.501H789.15V174.774H794.95V189.501ZM829.172 189.501H840.917V195.7H829.172V211.679H823.372V195.7H811.533V189.501H823.372V174.774H829.172V189.501ZM869.289 196.44V216.766H863.489V166.105H879.903C884.474 166.105 888.038 167.499 890.587 170.286C893.137 173.074 894.416 176.738 894.391 181.29C894.391 185.895 893.116 189.564 890.563 192.323C888.013 195.081 884.449 196.474 879.879 196.474L869.289 196.445V196.44ZM869.289 191.065H879.903C882.816 191.065 884.981 190.154 886.425 188.307C887.869 186.46 888.566 184.126 888.566 181.343C888.566 178.561 887.844 176.197 886.4 174.321C884.957 172.445 882.791 171.504 879.903 171.504H869.289V191.065ZM920.309 216.766C920.115 215.631 919.946 214.632 919.851 213.755C919.756 212.878 919.682 212.02 919.657 211.138C918.572 212.956 917.178 214.466 915.421 215.685C913.688 216.908 911.811 217.502 909.815 217.502C906.494 217.502 903.965 216.508 902.233 214.491C900.5 212.473 899.634 209.715 899.634 206.187C899.634 202.659 900.863 199.788 903.338 197.742C905.793 195.724 909.138 194.701 913.375 194.701H919.682V190.978C919.682 188.76 919.104 187.025 917.974 185.749C916.844 184.467 915.231 183.814 913.135 183.814C911.258 183.814 909.72 184.384 908.565 185.49C907.41 186.601 906.832 187.937 906.832 189.501L901.321 189.559L901.271 189.36C901.127 186.631 902.212 184.131 904.522 181.855C906.832 179.579 909.819 178.444 913.474 178.444C917.129 178.444 919.996 179.526 922.186 181.684C924.376 183.843 925.482 186.972 925.482 191.065V209.203C925.482 210.538 925.531 211.849 925.651 213.097C925.771 214.349 925.989 215.572 926.303 216.791H920.309V216.762V216.766ZM910.681 211.762C912.777 211.762 914.674 211.138 916.361 209.856C918.044 208.575 919.154 207.127 919.657 205.48V199.369H913.135C910.801 199.369 908.924 200.081 907.529 201.445C906.135 202.839 905.434 204.486 905.434 206.362C905.434 208.039 905.867 209.349 906.758 210.344C907.624 211.284 908.948 211.767 910.681 211.767V211.762ZM946.566 212.132C948.348 212.132 949.911 211.421 951.26 210.027C952.609 208.633 953.256 206.898 953.256 204.851H958.504L958.599 205.051C958.673 208.292 957.493 211.191 955.059 213.696C952.63 216.225 949.787 217.478 946.566 217.478C942.09 217.478 938.625 215.685 936.191 212.078C933.761 208.497 932.532 204.004 932.532 198.628V197.176C932.532 191.86 933.761 187.396 936.191 183.785C938.645 180.174 942.086 178.385 946.541 178.385C950.101 178.385 953.013 179.691 955.278 182.279C957.538 184.896 958.648 188.078 958.574 191.86L958.524 192.059H953.252C953.252 189.754 952.625 187.795 951.351 186.202C950.076 184.579 948.488 183.785 946.561 183.785C943.723 183.785 941.628 185.091 940.328 187.708C939.029 190.325 938.377 193.477 938.377 197.205V198.658C938.377 202.439 939.029 205.621 940.304 208.238C941.578 210.855 943.674 212.132 946.561 212.132H946.566ZM974.291 199.394H971.308V216.766H965.508V162.465H971.308V193.936H974.22L983.799 179.121H990.754L979.179 196.494L991.765 216.796H984.905L974.291 199.398V199.394ZM1016 216.766C1015.81 215.631 1015.64 214.632 1015.54 213.755C1015.45 212.873 1015.37 212.02 1015.35 211.138C1014.26 212.956 1012.87 214.466 1011.11 215.685C1009.38 216.908 1007.5 217.502 1005.51 217.502C1002.18 217.502 999.656 216.508 997.924 214.491C996.191 212.473 995.325 209.715 995.325 206.187C995.325 202.659 996.554 199.788 999.029 197.742C1001.48 195.724 1004.83 194.701 1009.07 194.701H1015.37V190.978C1015.37 188.76 1014.8 187.025 1013.67 185.749C1012.53 184.467 1010.92 183.814 1008.83 183.814C1006.95 183.814 1005.41 184.384 1004.26 185.49C1003.1 186.601 1002.52 187.937 1002.52 189.501L997.012 189.559L996.962 189.36C996.818 186.631 997.903 184.131 1000.21 181.855C1002.52 179.579 1005.51 178.444 1009.16 178.444C1012.82 178.444 1015.69 179.526 1017.88 181.684C1020.07 183.843 1021.17 186.972 1021.17 191.065V209.203C1021.17 210.538 1021.22 211.849 1021.34 213.097C1021.46 214.349 1021.68 215.572 1021.99 216.791L1016 216.762V216.766ZM1006.37 211.762C1008.47 211.762 1010.36 211.138 1012.05 209.856C1013.74 208.575 1014.84 207.127 1015.35 205.48V199.369H1008.83C1006.49 199.369 1004.61 200.051 1003.22 201.445C1001.83 202.839 1001.12 204.486 1001.12 206.362C1001.12 208.039 1001.56 209.349 1002.45 210.344C1003.34 211.284 1004.64 211.767 1006.37 211.767V211.762ZM1028.56 198.653C1028.56 192.595 1029.67 187.708 1031.86 184.009C1034.05 180.286 1037.1 178.439 1041.03 178.439C1043.05 178.439 1044.83 178.921 1046.37 179.891C1047.91 180.856 1049.19 182.25 1050.22 184.043L1050.92 179.126H1055.54V216.995C1055.54 221.83 1054.36 225.523 1051.98 228.111C1049.59 230.699 1046.18 231.976 1041.7 231.976C1040.16 231.976 1038.52 231.717 1036.74 231.235C1034.96 230.723 1033.4 230.07 1032.05 229.188L1032.94 223.871C1034.07 224.583 1035.42 225.124 1036.98 225.548C1038.57 225.977 1040.11 226.201 1041.65 226.201C1044.49 226.201 1046.53 225.431 1047.81 223.925C1049.09 222.39 1049.74 220.085 1049.74 216.986V212.692C1048.7 214.286 1047.45 215.451 1046.01 216.274C1044.57 217.098 1042.88 217.497 1040.98 217.497C1037.08 217.497 1034.05 215.821 1031.86 212.493C1029.67 209.164 1028.59 204.788 1028.59 199.359V198.648H1028.57L1028.56 198.653ZM1034.36 199.364C1034.36 203.146 1035.01 206.187 1036.33 208.492C1037.66 210.797 1039.68 211.932 1042.42 211.932C1044.18 211.932 1045.62 211.45 1046.8 210.509C1047.98 209.569 1048.94 208.233 1049.71 206.528V189.184C1048.97 187.591 1048.01 186.314 1046.8 185.373C1045.6 184.433 1044.15 183.95 1042.47 183.95C1039.7 183.95 1037.66 185.315 1036.33 188.015C1035.01 190.744 1034.34 194.243 1034.34 198.589V199.359H1034.36V199.364ZM1077.08 217.502C1072.51 217.502 1068.95 215.767 1066.37 212.327C1063.82 208.857 1062.52 204.311 1062.52 198.682V197.147C1062.52 191.748 1063.85 187.284 1066.5 183.726C1069.14 180.203 1072.37 178.41 1076.17 178.41C1080.43 178.41 1083.63 179.974 1085.75 183.102C1087.86 186.231 1088.95 190.407 1088.95 195.612V199.223H1068.56L1068.47 199.394C1068.47 203.175 1069.16 206.245 1070.58 208.604C1072 210.962 1074.14 212.127 1077.06 212.127C1079.03 212.127 1080.74 211.786 1082.23 211.133C1083.72 210.48 1084.97 209.569 1086.06 208.404L1088.32 212.868C1087.19 214.174 1085.67 215.256 1083.82 216.167C1081.97 217.078 1079.7 217.502 1077.08 217.502H1077.08ZM1076.17 183.814C1074.14 183.814 1072.46 184.725 1071.14 186.572C1069.81 188.419 1069 190.778 1068.71 193.653L1068.76 193.823H1083.12V193.253C1083.12 190.524 1082.55 188.249 1081.42 186.46C1080.31 184.725 1078.55 183.814 1076.17 183.814H1076.17ZM1132.53 207.298H1132.7L1146.4 166.129H1153.61V216.791H1147.81V178.809L1147.65 178.78L1134.65 216.791H1130.61L1117.23 177.528L1117.06 177.557V216.791H1111.26V166.129H1118.89L1132.53 207.298ZM1182.47 216.796C1182.28 215.66 1182.11 214.661 1182.01 213.784C1181.9 212.917 1181.83 212.044 1181.82 211.167C1180.73 212.985 1179.34 214.495 1177.58 215.714C1175.85 216.937 1173.97 217.531 1171.98 217.531C1168.65 217.531 1166.13 216.537 1164.39 214.52C1162.66 212.502 1161.79 209.744 1161.79 206.216C1161.79 202.688 1163.02 199.817 1165.5 197.771C1167.95 195.753 1171.3 194.73 1175.54 194.73H1181.84V191.007C1181.84 188.789 1181.27 187.055 1180.14 185.778C1179 184.496 1177.39 183.843 1175.3 183.843C1173.42 183.843 1171.88 184.413 1170.73 185.52C1169.57 186.631 1168.99 187.966 1168.99 189.53L1163.48 189.589L1163.43 189.389C1163.29 186.66 1164.37 184.16 1166.68 181.884C1168.99 179.608 1171.98 178.473 1175.63 178.473C1179.29 178.473 1182.16 179.555 1184.35 181.714C1186.54 183.872 1187.64 187.001 1187.64 191.094V209.232C1187.64 210.568 1187.69 211.879 1187.81 213.126C1187.93 214.379 1188.15 215.602 1188.46 216.82H1182.47V216.791V216.796ZM1172.84 211.791C1174.94 211.791 1176.84 211.167 1178.52 209.885C1180.21 208.604 1181.31 207.156 1181.82 205.509V199.398H1175.3C1172.96 199.398 1171.08 200.11 1169.69 201.474C1168.3 202.868 1167.59 204.515 1167.59 206.391C1167.59 208.068 1168.03 209.379 1168.92 210.373C1169.79 211.313 1171.11 211.796 1172.84 211.796V211.791ZM1201.24 179.15L1201.65 184.75C1202.71 182.761 1204.03 181.197 1205.64 180.115C1207.25 179.004 1209.06 178.468 1211.1 178.468C1214.54 178.468 1217.19 179.662 1219.09 182.05C1220.97 184.438 1221.93 188.107 1221.93 193.054V216.82H1216.13V193.195C1216.13 189.866 1215.58 187.508 1214.47 186.143C1213.36 184.779 1211.68 184.067 1209.39 184.067C1207.61 184.067 1206.09 184.496 1204.84 185.349C1203.59 186.202 1202.6 187.396 1201.88 188.902V216.849H1196.08V179.18H1201.23V179.15H1201.24ZM1249.92 216.791C1249.73 215.655 1249.56 214.656 1249.47 213.779C1249.37 212.897 1249.3 212.044 1249.27 211.162C1248.19 212.98 1246.79 214.491 1245.04 215.709C1243.3 216.932 1241.43 217.527 1239.43 217.527C1236.11 217.527 1233.58 216.532 1231.85 214.515C1230.12 212.497 1229.25 209.739 1229.25 206.211C1229.25 202.683 1230.48 199.813 1232.95 197.766C1235.41 195.748 1238.75 194.725 1242.99 194.725H1249.3V191.002C1249.3 188.785 1248.72 187.05 1247.59 185.773C1246.46 184.491 1244.85 183.838 1242.75 183.838C1240.87 183.838 1239.33 184.409 1238.18 185.515C1237.02 186.626 1236.45 187.961 1236.45 189.525L1230.94 189.584L1230.89 189.384C1230.74 186.655 1231.83 184.155 1234.14 181.879C1236.45 179.604 1239.43 178.468 1243.09 178.468C1246.74 178.468 1249.61 179.55 1251.8 181.709C1253.99 183.868 1255.1 186.996 1255.1 191.09V209.228C1255.1 210.563 1255.15 211.874 1255.27 213.121C1255.39 214.374 1255.6 215.597 1255.92 216.815H1249.92V216.786V216.791ZM1240.3 211.786C1242.39 211.786 1244.29 211.162 1245.98 209.881C1247.66 208.599 1248.77 207.152 1249.27 205.504V199.394H1242.75C1240.42 199.394 1238.54 200.105 1237.14 201.469C1235.75 202.863 1235.05 204.51 1235.05 206.387C1235.05 208.063 1235.48 209.374 1236.37 210.368C1237.26 211.308 1238.56 211.791 1240.3 211.791V211.786ZM1262.49 198.677C1262.49 192.62 1263.59 187.732 1265.78 184.033C1267.97 180.31 1271.03 178.463 1274.95 178.463C1276.97 178.463 1278.75 178.946 1280.29 179.915C1281.83 180.88 1283.11 182.274 1284.14 184.067L1284.84 179.15H1289.46V217.02C1289.46 221.854 1288.28 225.548 1285.9 228.135C1283.52 230.723 1280.1 232 1275.62 232C1274.09 232 1272.45 231.742 1270.67 231.259C1268.88 230.748 1267.32 230.095 1265.97 229.212L1266.86 223.896C1267.99 224.607 1269.34 225.148 1270.9 225.572C1272.49 226.001 1274.03 226.225 1275.57 226.225C1278.41 226.225 1280.46 225.455 1281.74 223.949C1283.01 222.444 1283.66 220.109 1283.66 217.01V212.717C1282.63 214.31 1281.38 215.475 1279.93 216.299C1278.49 217.122 1276.81 217.522 1274.91 217.522C1271.01 217.522 1267.98 215.845 1265.79 212.517C1263.59 209.189 1262.51 204.812 1262.51 199.384V198.672H1262.49L1262.49 198.677ZM1268.29 199.389C1268.29 203.17 1268.94 206.211 1270.26 208.516C1271.58 210.821 1273.6 211.957 1276.35 211.957C1278.1 211.957 1279.55 211.474 1280.73 210.534C1281.91 209.593 1282.87 208.258 1283.64 206.552V189.209C1282.89 187.615 1281.93 186.338 1280.73 185.398C1279.52 184.457 1278.08 183.975 1276.4 183.975C1273.63 183.975 1271.58 185.339 1270.26 188.039C1268.93 190.739 1268.26 194.267 1268.26 198.614V199.384H1268.29V199.389ZM1311.01 217.527C1306.43 217.527 1302.87 215.792 1300.3 212.351C1297.75 208.882 1296.45 204.335 1296.45 198.706V197.171C1296.45 191.772 1297.77 187.308 1300.42 183.751C1303.07 180.227 1306.29 178.434 1310.09 178.434C1314.35 178.434 1317.56 179.998 1319.67 183.127C1321.79 186.255 1322.87 190.432 1322.87 195.636V199.247H1302.49L1302.4 199.418C1302.4 203.199 1303.09 206.27 1304.51 208.628C1305.93 210.987 1308.07 212.151 1310.98 212.151C1312.96 212.151 1314.67 211.81 1316.16 211.157C1317.65 210.504 1318.9 209.593 1319.99 208.428L1322.25 212.892C1321.12 214.198 1319.6 215.28 1317.75 216.191C1315.89 217.103 1313.63 217.527 1311.01 217.527ZM1310.09 183.838C1308.07 183.838 1306.39 184.75 1305.06 186.597C1303.74 188.444 1302.92 190.802 1302.63 193.677L1302.68 193.848H1317.05V193.278C1317.05 190.549 1316.47 188.273 1315.34 186.484C1314.24 184.75 1312.48 183.838 1310.09 183.838H1310.09ZM1344.48 185.203L1341.5 185.003C1339.96 185.003 1338.68 185.432 1337.62 186.285C1336.56 187.137 1335.77 188.361 1335.2 189.896V216.791H1329.4V179.121H1334.57L1335.12 184.608C1336.04 182.644 1337.14 181.139 1338.47 180.062C1339.79 178.98 1341.33 178.415 1343.04 178.415C1343.47 178.415 1343.88 178.444 1344.27 178.527C1344.65 178.614 1344.99 178.697 1345.23 178.785L1344.48 185.213V185.203Z" fill="black"/>
<path d="M706.4 138.5C698.5 138.5 692.45 136.25 688.25 131.75C684.15 127.25 682.1 120.9 682.1 112.7V56.3C682.1 48.1 684.15 41.75 688.25 37.25C692.45 32.75 698.5 30.5 706.4 30.5C714.3 30.5 720.3 32.75 724.4 37.25C728.6 41.75 730.7 48.1 730.7 56.3V67.4H715.1V55.25C715.1 48.75 712.35 45.5 706.85 45.5C701.35 45.5 698.6 48.75 698.6 55.25V113.9C698.6 120.3 701.35 123.5 706.85 123.5C712.35 123.5 715.1 120.3 715.1 113.9V97.85H730.7V112.7C730.7 120.9 728.6 127.25 724.4 131.75C720.3 136.25 714.3 138.5 706.4 138.5ZM764.715 138.5C756.615 138.5 750.415 136.2 746.115 131.6C741.815 127 739.665 120.5 739.665 112.1V56.9C739.665 48.5 741.815 42 746.115 37.4C750.415 32.8 756.615 30.5 764.715 30.5C772.815 30.5 779.015 32.8 783.315 37.4C787.615 42 789.765 48.5 789.765 56.9V112.1C789.765 120.5 787.615 127 783.315 131.6C779.015 136.2 772.815 138.5 764.715 138.5ZM764.715 123.5C770.415 123.5 773.265 120.05 773.265 113.15V55.85C773.265 48.95 770.415 45.5 764.715 45.5C759.015 45.5 756.165 48.95 756.165 55.85V113.15C756.165 120.05 759.015 123.5 764.715 123.5ZM800.923 32H821.623L837.673 94.85H837.973V32H852.673V137H835.723L815.923 60.35H815.623V137H800.923V32ZM877.687 32H900.037L917.137 137H900.637L897.637 116.15V116.45H878.887L875.887 137H860.587L877.687 32ZM895.687 102.2L888.337 50.3H888.037L880.837 102.2H895.687ZM925.142 32H945.842L961.892 94.85H962.192V32H976.892V137H959.942L940.142 60.35H939.842V137H925.142V32ZM1012.88 125.6C1012.88 118.1 1014.08 111.7 1016.48 106.4C1018.88 101 1023.18 95.05 1029.38 88.55C1035.48 82.05 1039.68 76.5 1041.98 71.9C1044.38 67.3 1045.58 62.5 1045.58 57.5C1045.58 53 1044.83 49.9 1043.33 48.2C1041.93 46.4 1039.83 45.5 1037.03 45.5C1031.33 45.5 1028.48 48.95 1028.48 55.85V67.1H1012.88V56.9C1012.88 48.4 1014.98 41.9 1019.18 37.4C1023.38 32.8 1029.48 30.5 1037.48 30.5C1045.48 30.5 1051.58 32.8 1055.78 37.4C1059.98 41.9 1062.08 48.4 1062.08 56.9C1062.08 63.3 1060.53 69.55 1057.43 75.65C1054.43 81.75 1049.18 88.75 1041.68 96.65C1036.78 101.85 1033.48 106.1 1031.78 109.4C1030.08 112.6 1029.23 116.05 1029.23 119.75V122H1060.58V137H1012.88V125.6ZM1073.24 121.1H1089.14V137H1073.24V121.1ZM1125.36 138.5C1117.26 138.5 1111.06 136.2 1106.76 131.6C1102.46 127 1100.31 120.5 1100.31 112.1V56.9C1100.31 48.5 1102.46 42 1106.76 37.4C1111.06 32.8 1117.26 30.5 1125.36 30.5C1133.46 30.5 1139.66 32.8 1143.96 37.4C1148.26 42 1150.41 48.5 1150.41 56.9V112.1C1150.41 120.5 1148.26 127 1143.96 131.6C1139.66 136.2 1133.46 138.5 1125.36 138.5ZM1125.36 123.5C1131.06 123.5 1133.91 120.05 1133.91 113.15V55.85C1133.91 48.95 1131.06 45.5 1125.36 45.5C1119.66 45.5 1116.81 48.95 1116.81 55.85V113.15C1116.81 120.05 1119.66 123.5 1125.36 123.5Z" fill="black"/>
<path d="M324.1 32L325.1 232" stroke="black" stroke-width="3" stroke-miterlimit="10"/>
<path d="M62.1719 42.5562C63.6475 44.148 66.2139 44.0154 67.7537 43.1532C69.2935 42.2909 68.9727 39.8369 67.497 37.7145C66.5988 36.388 63.84 35.7911 62.0435 37.7145C60.2471 39.5716 61.1453 41.495 62.1719 42.5562ZM18.7363 19.4752C23.4199 22.4598 26.4996 26.9699 30.0925 22.9241C31.2473 21.5976 32.7871 19.0772 30.2208 14.1692C28.3601 10.5876 22.1368 9.12849 20.0195 10.5213C17.8381 11.8478 15.1434 17.1538 18.8005 19.4089M71.4107 21.0007C74.0412 21.7965 75.1961 24.3832 77.3775 21.4649C78.4682 20.0721 78.5965 18.1487 77.1209 16.0263C76.2226 14.6998 71.924 13.7712 70.1275 15.6947C68.3311 17.6181 69.9351 20.5364 71.3466 21.0007M241.432 49.9846C239.699 52.3723 239.635 54.0304 240.854 55.2906C242.137 56.6834 244.832 57.8773 246.821 56.2855C248.746 54.6937 248.746 52.3723 247.142 50.3163C245.474 48.2602 243.228 48.2602 241.432 49.9183M242.907 25.3781C244.896 27.3678 250.286 26.0413 251.505 24.5822C254.712 20.868 254.841 18.613 253.173 16.1589C251.505 13.7049 248.04 14.1029 244.575 16.7559C241.111 19.3425 241.752 24.2506 242.907 25.3781ZM159.95 16.6232C160.591 21.4649 161.361 21.3323 163.03 21.7965C164.698 22.2608 166.815 19.5415 166.879 16.8885C166.943 14.2355 165.788 12.5774 163.286 12.71C160.784 12.7764 159.886 14.1029 159.95 16.6895M100.282 76.183C95.7911 74.1269 91.1075 66.3006 89.311 63.117C94.3154 58.0763 92.3265 49.5867 89.4394 44.9439C86.6164 40.3012 83.2159 41.6277 79.4306 37.3166C75.6452 33.0718 80.8421 21.8629 85.654 30.4851C103.683 62.5864 115.552 49.2551 130.308 47.3316C144.488 45.4745 156.934 53.4998 160.784 30.8831C161.426 27.1689 164.89 26.3066 165.211 32.4085C165.596 38.5104 167.777 53.3672 175.54 55.2906C183.304 57.214 189.463 53.4335 191.324 51.3111C193.12 49.1887 194.082 49.5204 194.916 54.76C195.686 59.9997 197.675 67.2291 208.582 59.2038C230.91 42.7552 224.558 36.388 233.219 32.1432C238.159 29.7555 245.923 37.5819 234.695 43.4848C218.591 51.9081 216.859 62.3874 206.722 69.0199C189.591 80.1625 194.852 69.4842 167.328 65.4383C156.742 63.8465 153.342 76.1166 145.065 72.6014C125.946 64.4435 112.665 66.0353 100.282 76.3819M200.883 109.08C182.79 121.218 126.972 125.728 102.913 110.208C84.05 98.0702 90.53 78.7696 36.6366 36.2554C29.5792 30.6841 37.9198 24.7812 43.245 28.5617C48.506 32.3422 43.6941 33.3371 54.3445 44.347C75.8377 66.5659 75.6452 46.6021 79.0456 54.1631C86.1672 70.0811 101.95 86.0654 101.95 86.0654C117.733 96.6774 130.309 98.9987 153.598 82.7491C168.355 72.4024 162.324 99.1977 198.509 79.8972C211.726 72.8667 211.149 77.5095 224.558 58.2089C230.14 50.1836 240.79 64.3771 228.728 66.3669C223.916 67.1628 215.768 72.6014 212.239 81.2237C207.299 93.958 209.416 103.442 200.947 109.08M239.763 109.876C239.763 102.846 233.925 96.3457 224.045 90.9734C226.354 93.8917 227.637 97.009 227.637 100.193C227.637 117.172 192.607 130.967 149.428 130.967C106.249 130.967 71.2183 117.172 71.2183 100.193C71.2183 98.0039 71.7957 95.9478 72.8864 93.8917C65.9572 98.6671 61.9794 104.106 61.9794 109.876C61.9794 128.248 101.758 143.171 150.904 143.171C200.049 143.171 239.828 128.248 239.828 109.876M261 120.289C261 113.59 257.022 107.356 250.221 102.315C250.863 104.371 251.184 106.427 251.184 108.55C251.184 127.717 225.264 144.1 188.565 150.931C192.735 151.395 197.034 151.661 201.461 151.661C234.374 151.661 261 137.6 261 120.289ZM71.8598 80.4278C53.9595 84.9379 41.7694 93.8254 41.7694 104.039C41.7694 110.34 46.4529 116.177 54.2162 120.753C51.8423 116.906 50.6233 112.794 50.6233 108.616C50.6233 98.0039 58.579 88.2541 71.8598 80.4941M252.21 178.124L246.243 168.242C242.907 171.492 238.865 173.349 234.887 173.349C233.091 173.349 232.129 173.084 228.151 172.089C224.173 170.895 221.414 170.563 218.334 170.563C204.348 170.563 195.237 178.456 195.237 190.726C195.237 199.547 199.087 205.052 206.978 207.241C203.77 208.037 200.242 209.828 198.638 211.751C197.483 213.144 196.905 215.001 196.905 217.19C196.905 219.047 197.354 220.705 197.996 222.098C198.766 223.358 199.793 224.419 201.076 225.016C203.642 226.077 207.812 226.74 214.228 226.873C217.564 226.873 219.553 227.006 220.323 227.006C224.301 227.271 226.29 227.934 227.83 228.73C229.306 229.659 230.396 231.781 230.396 234.103C230.396 236.424 228.985 238.745 226.996 240.138C225.071 241.531 221.991 242.128 217.885 242.128C211.277 242.128 207.62 239.608 207.62 234.832C207.62 232.71 207.812 232.245 208.261 230.985H194.981C194.467 232.113 193.697 233.771 193.697 237.021C193.697 241.067 195.173 244.582 198.189 247.633C203.129 252.607 211.149 254 218.912 254C227.445 254 235.721 251.878 240.533 246.306C243.549 242.791 244.896 238.944 244.896 233.97C244.896 228.598 243.421 224.552 240.213 221.302C236.363 217.455 232 216.062 223.66 215.93L215.961 215.797C214.485 215.797 213.587 215.2 213.587 214.404C213.587 212.812 215.64 211.353 219.233 209.496C220.323 209.629 220.708 209.629 221.35 209.629C233.027 209.629 241.56 202.2 241.56 191.92C241.56 187.94 240.469 184.956 238.352 182.104C240.148 182.369 240.726 182.435 242.073 182.435C246.051 182.435 249.002 181.175 252.146 177.992M226.803 190.66C226.803 196.165 223.724 199.149 218.014 199.149C213.009 199.149 209.545 196.695 209.545 190.66C209.545 185.088 212.624 181.839 218.078 181.839C223.531 181.839 226.739 185.088 226.739 190.66M185.678 224.087C190.361 218.251 192.543 211.287 192.543 201.006C192.543 191.323 190.618 184.823 186.255 179.252C181.571 173.216 175.476 170.298 167.649 170.298C152.892 170.298 143.076 182.767 143.076 201.471C143.076 220.174 152.828 232.312 167.649 232.312C176.118 232.312 181.571 229.195 185.742 224.021M176.952 200.874C176.952 214.935 174.257 221.037 168.098 221.037C165.339 221.037 162.131 219.445 160.848 216.129C159.693 213.078 159.052 207.971 159.052 201.139C159.052 195.236 159.565 190.991 160.527 187.874C161.682 184.16 164.505 181.839 167.906 181.839C170.472 181.839 172.717 183.032 174.129 184.956C176.054 187.609 177.016 192.915 177.016 200.874M40.5503 241.73L47.4795 250.087C54.2162 247.301 62.6851 241 64.8024 231.118C65.5723 227.868 65.8289 225.746 65.8289 215.266V150.467H50.6233V216.991C50.6233 225.746 50.3025 228.996 49.1476 231.914C47.7361 235.164 44.3357 239.143 40.4862 241.664M75.5811 150.268H74.0412V230.919H89.0544V195.17H107.981V181.905H89.0544V163.4H112.665L113.563 156.37C99.3198 155.242 86.4239 152.921 75.5811 150.268ZM125.368 169.966L112.537 173.681C113.691 177.063 114.59 183.099 114.59 191.124V230.919H128.961V188.803C131.656 185.42 134.543 183.762 137.751 183.762C139.355 183.762 140.51 184.094 141.921 184.889L145.899 171.16C143.654 170.099 142.691 169.9 140.51 169.9C138.906 169.9 136.981 170.232 135.826 170.829C133.131 172.221 129.731 175.339 127.678 178.39C127.486 175.007 126.716 172.354 125.432 169.9" fill="#40BE46"/>
<defs>
<linearGradient id="paint0_linear_214_2" x1="375.888" y1="166.592" x2="480.462" y2="169.354" gradientUnits="userSpaceOnUse">
<stop stop-color="#0086FD"/>
<stop offset="1" stop-color="#21AFFF"/>
</linearGradient>
<linearGradient id="paint1_linear_214_2" x1="442.983" y1="76.5953" x2="582.136" y2="76.5953" gradientUnits="userSpaceOnUse">
<stop stop-color="#0086FD"/>
<stop offset="1" stop-color="#21AFFF"/>
</linearGradient>
<linearGradient id="paint2_linear_214_2" x1="564.384" y1="168.18" x2="569.285" y2="168.18" gradientUnits="userSpaceOnUse">
<stop stop-color="#0086FD"/>
<stop offset="1" stop-color="#21AFFF"/>
</linearGradient>
</defs>
</svg>
